<svg width="221" height="36" viewBox="0 0 221 36" fill="none" xmlns="http://www.w3.org/2000/svg">
<g clip-path="url(#clip0_1276:6)">
<path d="M20.2516 7.50977C14.3316 7.50977 10.3516 10.9198 10.3516 17.6298V21.7198C10.9624 21.4544 11.6163 21.3019 12.2816 21.2698C12.9569 21.2427 13.6271 21.3981 14.2216 21.7198V17.6298C14.2216 13.3098 16.6116 11.0298 20.2216 11.0298C23.8316 11.0298 26.2216 13.3098 26.2216 17.6298V28.0898H30.0916V17.6298C30.0916 10.9198 26.0916 7.50977 20.2016 7.50977" fill="white"/>
<path d="M32.1914 18.0798C32.1914 11.9398 36.6214 7.50977 42.9914 7.50977C49.3614 7.50977 53.6814 11.9698 53.6814 18.0798V19.4498H36.2814C36.4997 21.0496 37.3101 22.5093 38.5525 23.5406C39.7948 24.5719 41.3788 25.0997 42.9914 25.0198C45.6114 25.0198 47.4314 24.2298 48.5714 22.5198H52.8114C51.2214 26.2698 47.5814 28.6598 42.9214 28.6598C36.6614 28.6598 32.2314 24.2298 32.2314 18.0798H32.1914ZM49.7414 16.0798C49.3872 14.5916 48.521 13.2753 47.2944 12.3613C46.0677 11.4472 44.5587 10.9936 43.0314 11.0798C41.5185 10.9966 40.0252 11.4537 38.8182 12.3695C37.6111 13.2854 36.7687 14.6003 36.4414 16.0798H49.7414Z" fill="white"/>
<path d="M55.8086 18.0801C55.8086 11.9701 60.2786 7.5101 66.6486 7.5101C68.0629 7.45409 69.4737 7.68736 70.7947 8.19562C72.1157 8.70387 73.319 9.47643 74.331 10.466C75.343 11.4555 76.1424 12.6412 76.6802 13.9504C77.218 15.2597 77.4828 16.6649 77.4586 18.0801C77.4586 24.2301 73.0186 28.6601 66.6486 28.6601C60.2786 28.6601 55.8086 24.2301 55.8086 18.0801ZM73.4286 18.0801C73.4824 17.156 73.34 16.2309 73.0107 15.3658C72.6815 14.5006 72.1729 13.715 71.5183 13.0604C70.8637 12.4058 70.0781 11.8972 69.2129 11.568C68.3478 11.2387 67.4227 11.0963 66.4986 11.1501C65.5783 11.1136 64.6604 11.2678 63.8025 11.603C62.9447 11.9382 62.1654 12.4472 61.5136 13.098C60.8619 13.7488 60.3518 14.5273 60.0154 15.3847C59.6789 16.2421 59.5234 17.1597 59.5586 18.0801C59.5048 19.0055 59.6475 19.9319 59.9773 20.7982C60.307 21.6646 60.8164 22.4514 61.4718 23.1068C62.1273 23.7623 62.9141 24.2717 63.7805 24.6014C64.6468 24.9312 65.5732 25.0739 66.4986 25.0201C70.7086 25.1401 73.4286 22.1801 73.4286 18.0801Z" fill="white"/>
<path d="M97.5894 30.0295H93.7194V25.2495H83.9394C83.0397 25.2892 82.1468 25.076 81.362 24.6341C80.5773 24.1923 79.932 23.5394 79.4994 22.7495C79.1419 22.0177 79.0055 21.1977 79.1067 20.3896C79.2079 19.5815 79.5425 18.8204 80.0694 18.1995L88.8094 6.70948C89.4126 5.86673 90.2723 5.24184 91.26 4.92821C92.2478 4.61457 93.3105 4.62905 94.2894 4.96948C95.252 5.27805 96.0911 5.88568 96.6846 6.70399C97.2781 7.5223 97.5951 8.50862 97.5894 9.51948V21.8395H99.8594V25.2495H97.5894V30.0295ZM83.2594 20.3595C83.1126 20.513 83.0303 20.717 83.0294 20.9295C83.0294 21.1947 83.1347 21.4491 83.3223 21.6366C83.5098 21.8241 83.7642 21.9295 84.0294 21.9295H93.6994V9.54948C93.6994 8.86948 93.2494 8.63948 93.0194 8.63948H92.6794C92.5189 8.64626 92.3624 8.69161 92.2232 8.77168C92.0839 8.85175 91.966 8.96419 91.8794 9.09948L83.2594 20.3595Z" fill="white"/>
<path d="M168.762 5C168.168 5 167.588 5.17595 167.095 5.50559C166.602 5.83524 166.217 6.30377 165.99 6.85195C165.763 7.40013 165.704 8.00333 165.819 8.58527C165.935 9.16721 166.221 9.70176 166.64 10.1213C167.06 10.5409 167.595 10.8266 168.176 10.9424C168.758 11.0581 169.362 10.9987 169.91 10.7716C170.458 10.5446 170.926 10.1601 171.256 9.66671C171.586 9.17336 171.762 8.59334 171.762 8C171.762 7.20435 171.446 6.44129 170.883 5.87868C170.32 5.31607 169.557 5 168.762 5Z" fill="#66B9FF"/>
<path d="M12.06 23.1993C11.3491 23.1624 10.6523 23.4066 10.12 23.8793L6.48 21.4993C6.57793 21.2065 6.61867 20.8975 6.6 20.5893C6.60198 19.9362 6.41012 19.2972 6.04872 18.7532C5.68732 18.2092 5.17262 17.7847 4.5698 17.5334C3.96698 17.2821 3.30315 17.2153 2.66236 17.3415C2.02156 17.4677 1.43262 17.7812 0.970108 18.2423C0.507594 18.7034 0.192305 19.2914 0.0641607 19.9318C-0.0639831 20.5722 0.000781357 21.2363 0.250254 21.8398C0.499727 22.4434 0.922688 22.9594 1.46558 23.3224C2.00848 23.6855 2.6469 23.8793 3.3 23.8793C3.65071 23.8995 4.00195 23.8498 4.33328 23.7331C4.66462 23.6164 4.96943 23.4349 5.23 23.1993L8.87 25.6993C8.77994 25.9938 8.7427 26.3019 8.76 26.6093C8.74162 26.9168 8.77889 27.2251 8.87 27.5193L5.23 30.0293C4.68471 29.585 4.00338 29.3414 3.3 29.3393C2.64732 29.3393 2.0093 29.5328 1.46662 29.8954C0.923937 30.2581 0.500968 30.7734 0.251199 31.3764C0.00142984 31.9794 -0.0639212 32.643 0.0634101 33.2831C0.190741 33.9232 0.505036 34.5112 0.966549 34.9727C1.42806 35.4343 2.01607 35.7486 2.6562 35.8759C3.29634 36.0032 3.95986 35.9379 4.56286 35.6881C5.16585 35.4383 5.68124 35.0154 6.04385 34.4727C6.40646 33.93 6.6 33.292 6.6 32.6393C6.61943 32.3311 6.57867 32.022 6.48 31.7293L10.12 29.2293C10.6689 29.6729 11.3543 29.9131 12.06 29.9093C12.4929 29.9093 12.9215 29.8239 13.3213 29.6579C13.7212 29.4919 14.0843 29.2487 14.3899 28.9421C14.6956 28.6356 14.9377 28.2717 15.1024 27.8714C15.2672 27.4711 15.3513 27.0422 15.35 26.6093C15.3556 25.7238 15.0145 24.8713 14.3997 24.234C13.7849 23.5968 12.9451 23.2254 12.06 23.1993" fill="#66B9FF"/>
<path d="M112.53 28.75C110.33 28.75 108.44 28.31 106.86 27.43C105.3 26.53 104.1 25.27 103.26 23.65C102.42 22.01 102 20.08 102 17.86C102 15.64 102.42 13.72 103.26 12.1C104.1 10.48 105.3 9.23 106.86 8.35C108.44 7.45 110.33 7 112.53 7C113.95 7 115.29 7.22 116.55 7.66C117.83 8.1 118.88 8.73 119.7 9.55L118.44 12.61C117.54 11.85 116.62 11.3 115.68 10.96C114.74 10.6 113.73 10.42 112.65 10.42C110.51 10.42 108.88 11.07 107.76 12.37C106.64 13.65 106.08 15.48 106.08 17.86C106.08 20.24 106.64 22.08 107.76 23.38C108.88 24.68 110.51 25.33 112.65 25.33C113.73 25.33 114.74 25.16 115.68 24.82C116.62 24.46 117.54 23.9 118.44 23.14L119.7 26.2C118.88 27 117.83 27.63 116.55 28.09C115.29 28.53 113.95 28.75 112.53 28.75Z" fill="white"/>
<path d="M153.454 28.45C152.664 28.45 151.949 27.9852 151.627 27.2637L142.736 7.3H146.846L153.836 23.53L160.826 7.3H164.786L155.894 27.2637C155.573 27.9852 154.857 28.45 154.067 28.45H153.454Z" fill="white"/>
<path d="M166.762 28.45V12H170.602V28.45H166.762Z" fill="white"/>
<path d="M175.2 28.45V7.3H183.06C186.6 7.3 189.33 8.21 191.25 10.03C193.19 11.85 194.16 14.46 194.16 17.86C194.16 21.24 193.19 23.85 191.25 25.69C189.33 27.53 186.6 28.45 183.06 28.45H175.2ZM179.04 25.27H182.82C187.7 25.27 190.14 22.8 190.14 17.86C190.14 12.94 187.7 10.48 182.82 10.48H179.04V25.27Z" fill="white"/>
<path d="M131.5 6C130.486 6 129.671 6.79733 129.671 7.78889C129.671 8.392 129.984 8.93378 130.455 9.25067V10.6818C129.514 10.8147 128.636 11.1111 127.841 11.5609L126.681 9.93556C126.88 9.404 126.827 8.79067 126.472 8.3C126.106 7.79911 125.541 7.53333 124.966 7.53333C124.601 7.53333 124.235 7.63556 123.921 7.86044C123.095 8.42267 122.886 9.53689 123.471 10.3444C123.827 10.8453 124.391 11.1111 124.966 11.1111L126.2 12.8284C125.751 13.268 125.395 13.7587 125.092 14.3004C124.883 14.2187 124.663 14.1778 124.444 14.1778C123.973 14.1778 123.503 14.3516 123.137 14.6889C122.437 15.4044 122.437 16.5289 123.137 17.2444C123.44 17.5204 123.806 17.6738 124.182 17.7556C124.182 18.3076 124.256 18.8391 124.371 19.3502L123.001 19.708C122.677 19.4422 122.259 19.2889 121.83 19.2889C121.673 19.2889 121.506 19.2889 121.349 19.3502C120.377 19.6058 119.801 20.5871 120.063 21.548C120.283 22.3556 121.046 22.8667 121.83 22.8667C121.987 22.8667 122.144 22.8667 122.311 22.8053C122.907 22.6418 123.356 22.2124 123.545 21.6809L125.123 21.2618C125.594 22.0693 126.221 22.7849 126.953 23.3778L125.803 25.4222C125.228 25.504 124.705 25.8209 124.402 26.3627C123.921 27.2316 124.256 28.3151 125.144 28.7853C125.416 28.9284 125.719 29 126.012 29C126.66 29 127.287 28.6627 127.622 28.0596C127.915 27.528 127.904 26.9147 127.643 26.4138L128.761 24.4C129.608 24.7271 130.528 24.9111 131.5 24.9111C131.563 24.9111 131.626 24.9111 131.689 24.9111C131.553 25.1769 131.5 25.4836 131.5 25.8107C131.584 26.7511 132.378 27.4667 133.33 27.4667C133.372 27.4667 133.424 27.4667 133.466 27.4667C134.48 27.3849 135.233 26.5262 135.159 25.5449C135.118 25.0338 134.856 24.584 134.48 24.2876C134.971 24.0729 135.442 23.7969 135.881 23.48L138.327 25.872C138.222 26.4444 138.39 27.0271 138.818 27.4667C139.184 27.804 139.655 27.9778 140.125 27.9778C140.596 27.9778 141.066 27.804 141.432 27.4667C142.132 26.7511 142.132 25.6267 141.432 24.9111C141.066 24.5738 140.596 24.4 140.125 24.4C140.021 24.4 139.916 24.4 139.801 24.4307L137.355 22.0387C137.867 21.3742 138.264 20.6178 138.515 19.8H139.676C140 20.26 140.554 20.5667 141.171 20.5667C142.185 20.5667 143 19.7693 143 18.7778C143 17.7862 142.185 16.9889 141.171 16.9889C140.554 16.9889 140 17.2956 139.676 17.7556H138.818C138.818 16.1507 138.296 14.6889 137.355 13.4724L138.756 12.1027C138.871 12.1333 138.975 12.1333 139.08 12.1333C139.55 12.1333 140.021 11.9596 140.386 11.6222C141.087 10.9169 141.087 9.78222 140.386 9.06667C140.021 8.72933 139.55 8.55556 139.08 8.55556C138.609 8.55556 138.139 8.72933 137.773 9.06667C137.344 9.50622 137.177 10.0889 137.282 10.6613L135.881 12.0311C134.919 11.3258 133.79 10.8556 132.546 10.6818V9.25067C133.016 8.93378 133.33 8.392 133.33 7.78889C133.33 6.79733 132.514 6 131.5 6ZM131.5 22.8667C128.615 22.8667 126.273 20.5769 126.273 17.7556C126.273 14.9342 128.615 12.6444 131.5 12.6444C134.386 12.6444 136.727 14.9342 136.727 17.7556C136.727 20.5769 134.386 22.8667 131.5 22.8667ZM129.932 14.6889C129.065 14.6889 128.364 15.3738 128.364 16.2222C128.364 17.0707 129.065 17.7556 129.932 17.7556C130.8 17.7556 131.5 17.0707 131.5 16.2222C131.5 15.3738 130.8 14.6889 129.932 14.6889ZM133.591 18.7778C133.016 18.7778 132.546 19.2378 132.546 19.8C132.546 20.3622 133.016 20.8222 133.591 20.8222C134.166 20.8222 134.637 20.3622 134.637 19.8C134.637 19.2378 134.166 18.7778 133.591 18.7778Z" fill="#66B9FF"/>
</g>
<defs>
<clipPath id="clip0_1276:6">
<rect width="221" height="36" fill="white"/>
</clipPath>
</defs>
</svg>
